<?xml version="1.0" encoding="utf-8"?>
<!-- Generator: Adobe Illustrator 26.0.0, SVG Export Plug-In . SVG Version: 6.00 Build 0)  -->
<svg version="1.1" id="Capa_1" xmlns="http://www.w3.org/2000/svg" xmlns:xlink="http://www.w3.org/1999/xlink" x="0px" y="0px"
	 viewBox="0 0 879.53 1080" style="enable-background:new 0 0 879.53 1080;" xml:space="preserve">
<style type="text/css">
	.st0{display:none;}
	.st1{fill:#FFFFFF;}
	.st2{fill:#662482;}
	.st3{fill:#CF3457;}
	.st4{fill:#FAE922;}
	.st5{fill:#F5F5F5;}
</style>
<g id="Brinding">
	<g id="Thank_for_buy_sticker">
	</g>
	<g id="Black_logo_Sticker">
	</g>
</g>
<g id="Global_labels">
</g>
<g id="Página_3_Tipografía">
	<g id="Lineas_guia_00000070813565277261014980000001370141877395364481_" class="st0">
	</g>
</g>
<g id="Página_2_Paleta_de_colores">
	<g id="Líneas_guía_00000020367481794738409910000018365220559042432186_" class="st0">
	</g>
</g>
<g id="Pagina_1.3_Imagologo">
	<g id="Para_exportar_00000094613602036181183140000006038299476457847219_">
		<g id="alternativo">
			<g>
				<g>
					<path class="st1" d="M59.83,994.77c5.24,0,9.1,1.56,11.59,4.66c2.49,3.11,3.73,7.28,3.73,12.52v1.87h-7.27v-2.26
						c0-3.14-0.62-5.56-1.87-7.26c-1.24-1.7-3.24-2.55-5.99-2.55c-2.75,0-4.75,0.85-5.99,2.55c-1.25,1.7-1.87,4.09-1.87,7.17
						c0,2.55,0.57,4.78,1.72,6.68c1.14,1.9,2.57,3.65,4.27,5.25c1.7,1.6,3.55,3.17,5.55,4.71c2,1.54,3.85,3.22,5.55,5.06
						c1.7,1.83,3.13,3.91,4.27,6.23c1.15,2.32,1.72,5.09,1.72,8.29c0,5.24-1.26,9.41-3.78,12.52s-6.44,4.66-11.74,4.66
						c-5.31,0-9.2-1.55-11.69-4.66c-2.49-3.11-3.73-7.28-3.73-12.52v-3.93h7.17v4.32c0,3.14,0.65,5.56,1.96,7.26
						c1.31,1.7,3.34,2.55,6.09,2.55s4.78-0.85,6.09-2.55c1.31-1.7,1.96-4.12,1.96-7.26c0-2.55-0.57-4.76-1.72-6.63
						s-2.57-3.6-4.27-5.2s-3.54-3.17-5.5-4.71c-1.96-1.54-3.8-3.22-5.5-5.06c-1.7-1.83-3.13-3.91-4.27-6.23
						c-1.15-2.32-1.72-5.09-1.72-8.29c0-5.3,1.24-9.49,3.73-12.57C50.82,996.31,54.65,994.77,59.83,994.77z"/>
					<path class="st1" d="M81.34,1012.05c0-5.3,1.29-9.51,3.88-12.62s6.53-4.66,11.84-4.66c5.3,0,9.27,1.56,11.89,4.66
						c2.62,3.11,3.93,7.31,3.93,12.62v35.54c0,5.24-1.31,9.42-3.93,12.57c-2.62,3.14-6.58,4.71-11.89,4.71s-9.25-1.57-11.84-4.71
						s-3.88-7.33-3.88-12.57C81.34,1047.59,81.34,1012.05,81.34,1012.05z M88.91,1047.98c0,3.14,0.67,5.58,2.01,7.31
						c1.34,1.73,3.39,2.6,6.14,2.6c2.82,0,4.88-0.87,6.19-2.6c1.31-1.73,1.96-4.17,1.96-7.31v-36.32c0-3.14-0.66-5.58-1.96-7.31
						c-1.31-1.73-3.37-2.6-6.19-2.6c-2.75,0-4.8,0.87-6.14,2.6c-1.34,1.74-2.01,4.17-2.01,7.31V1047.98z"/>
					<path class="st1" d="M120.15,1064.18v-68.72h7.66v61.75h19.65v6.97H120.15z"/>
					<path class="st1" d="M160.53,1047.98c0,3.14,0.64,5.58,1.92,7.31c1.28,1.73,3.32,2.6,6.14,2.6c2.75,0,4.76-0.87,6.04-2.6
						s1.92-4.17,1.92-7.31v-52.52h7.17v52.13c0,5.24-1.25,9.44-3.73,12.62c-2.49,3.17-6.39,4.76-11.69,4.76
						c-5.24,0-9.1-1.59-11.59-4.76c-2.49-3.17-3.73-7.38-3.73-12.62v-52.13h7.57v52.52H160.53z"/>
					<path class="st1" d="M206.12,994.77c5.3,0,9.22,1.57,11.74,4.71s3.78,7.33,3.78,12.57v6.18h-7.27v-6.58
						c0-3.14-0.64-5.58-1.92-7.31s-3.33-2.6-6.14-2.6c-2.75,0-4.78,0.87-6.09,2.6c-1.31,1.74-1.96,4.17-1.96,7.31v36.32
						c0,3.14,0.65,5.58,1.96,7.31c1.31,1.73,3.34,2.6,6.09,2.6c2.82,0,4.86-0.87,6.14-2.6s1.92-4.17,1.92-7.31v-8.93h7.27v8.54
						c0,5.24-1.26,9.42-3.78,12.57c-2.52,3.14-6.44,4.71-11.74,4.71c-5.24,0-9.12-1.57-11.64-4.71s-3.78-7.33-3.78-12.57v-35.54
						c0-2.62,0.31-4.99,0.93-7.12c0.62-2.12,1.57-3.94,2.85-5.45c1.28-1.5,2.88-2.67,4.81-3.48
						C201.22,995.18,203.5,994.77,206.12,994.77z"/>
					<path class="st1" d="M236.28,995.46v68.72h-7.66v-68.72L236.28,995.46L236.28,995.46z"/>
					<path class="st1" d="M243.55,1012.05c0-5.3,1.29-9.51,3.88-12.62c2.59-3.11,6.53-4.66,11.84-4.66c5.3,0,9.27,1.56,11.89,4.66
						c2.62,3.11,3.93,7.31,3.93,12.62v35.54c0,5.24-1.31,9.42-3.93,12.57c-2.62,3.14-6.58,4.71-11.89,4.71
						c-5.31,0-9.25-1.57-11.84-4.71s-3.88-7.33-3.88-12.57L243.55,1012.05L243.55,1012.05z M251.11,1047.98
						c0,3.14,0.67,5.58,2.01,7.31c1.34,1.73,3.39,2.6,6.14,2.6c2.82,0,4.88-0.87,6.19-2.6s1.96-4.17,1.96-7.31v-36.32
						c0-3.14-0.66-5.58-1.96-7.31c-1.31-1.73-3.37-2.6-6.19-2.6c-2.75,0-4.8,0.87-6.14,2.6c-1.34,1.74-2.01,4.17-2.01,7.31
						L251.11,1047.98L251.11,1047.98z"/>
					<path class="st1" d="M289.13,1064.18h-6.88v-68.72h9.73l15.92,49.67v-49.67h6.78v68.72h-7.96l-17.59-55.56L289.13,1064.18
						L289.13,1064.18z"/>
					<path class="st1" d="M347,1025.89v6.87h-16.8v24.44h20.63v6.97h-28.3v-68.72h28.3v6.97H330.2v23.46H347V1025.89z"/>
					<path class="st1" d="M372.35,994.77c5.24,0,9.1,1.56,11.59,4.66c2.49,3.11,3.73,7.28,3.73,12.52v1.87h-7.27v-2.26
						c0-3.14-0.62-5.56-1.87-7.26c-1.24-1.7-3.24-2.55-5.99-2.55s-4.75,0.85-5.99,2.55c-1.25,1.7-1.87,4.09-1.87,7.17
						c0,2.55,0.57,4.78,1.72,6.68c1.14,1.9,2.57,3.65,4.27,5.25c1.7,1.6,3.55,3.17,5.55,4.71s3.85,3.22,5.55,5.06
						c1.7,1.83,3.13,3.91,4.27,6.23c1.15,2.32,1.72,5.09,1.72,8.29c0,5.24-1.26,9.41-3.78,12.52s-6.44,4.66-11.74,4.66
						c-5.31,0-9.2-1.55-11.69-4.66s-3.73-7.28-3.73-12.52v-3.93H364v4.32c0,3.14,0.65,5.56,1.96,7.26s3.34,2.55,6.09,2.55
						s4.78-0.85,6.09-2.55c1.31-1.7,1.96-4.12,1.96-7.26c0-2.55-0.57-4.76-1.72-6.63s-2.57-3.6-4.27-5.2
						c-1.7-1.6-3.54-3.17-5.5-4.71c-1.96-1.54-3.8-3.22-5.5-5.06c-1.7-1.83-3.13-3.91-4.27-6.23c-1.15-2.32-1.72-5.09-1.72-8.29
						c0-5.3,1.24-9.49,3.73-12.57C363.34,996.31,367.17,994.77,372.35,994.77z"/>
					<path class="st1" d="M417.34,995.46v68.72h-7.66v-68.72L417.34,995.46L417.34,995.46z"/>
					<path class="st1" d="M431.98,1064.18h-6.88v-68.72h9.73l15.92,49.67v-49.67h6.78v68.72h-7.96l-17.59-55.56L431.98,1064.18
						L431.98,1064.18z"/>
					<path class="st1" d="M488.87,1027.46v6.97h-15.82v29.75h-7.66v-68.72h27.31v6.97h-19.65v25.03H488.87z"/>
					<path class="st1" d="M498.2,1012.05c0-5.3,1.29-9.51,3.88-12.62s6.53-4.66,11.84-4.66c5.3,0,9.27,1.56,11.89,4.66
						c2.62,3.11,3.93,7.31,3.93,12.62v35.54c0,5.24-1.31,9.42-3.93,12.57c-2.62,3.14-6.58,4.71-11.89,4.71s-9.25-1.57-11.84-4.71
						s-3.88-7.33-3.88-12.57L498.2,1012.05L498.2,1012.05z M505.76,1047.98c0,3.14,0.67,5.58,2.01,7.31c1.34,1.73,3.39,2.6,6.14,2.6
						c2.82,0,4.88-0.87,6.19-2.6s1.96-4.17,1.96-7.31v-36.32c0-3.14-0.66-5.58-1.96-7.31c-1.31-1.73-3.37-2.6-6.19-2.6
						c-2.75,0-4.8,0.87-6.14,2.6c-1.34,1.74-2.01,4.17-2.01,7.31V1047.98z"/>
					<path class="st1" d="M552.33,995.46c5.44,0,9.35,1.34,11.74,4.02s3.59,6.58,3.59,11.68v5.6c0,3.8-0.69,6.87-2.06,9.23
						c-1.38,2.36-3.54,3.99-6.48,4.91c3.14,0.92,5.37,2.6,6.68,5.06c1.31,2.45,1.96,5.55,1.96,9.28v10.7c0,1.51,0.06,2.96,0.2,4.37
						c0.13,1.41,0.52,2.7,1.18,3.88h-7.76c-0.46-0.98-0.79-2.04-0.98-3.19c-0.2-1.14-0.29-2.86-0.29-5.15v-10.8
						c0-3.86-0.87-6.53-2.6-8c-1.74-1.47-4.21-2.21-7.42-2.21h-5.4v29.35h-7.66v-68.72h15.3V995.46z M550.37,1027.85
						c3.08,0,5.47-0.64,7.17-1.91c1.7-1.28,2.55-3.78,2.55-7.51v-6.58c0-3.14-0.61-5.5-1.82-7.07s-3.26-2.36-6.14-2.36h-7.47v25.43
						H550.37z"/>
					<path class="st1" d="M601.06,1064.08h-7.37l-11.4-54.68v54.78h-6.68v-68.72h10.71l11.3,54.88l10.91-54.88h10.71v68.72h-7.27
						v-55.27L601.06,1064.08z"/>
					<path class="st1" d="M634.86,1050.33l-2.65,13.84h-7.07l13.17-68.72h11.1l13.17,68.72h-7.66l-2.65-13.84H634.86z
						 M635.84,1043.76h15.33l-7.76-39.66L635.84,1043.76z M653.14,981.71l-9.04,10.11h-5.4l6.88-10.11H653.14z"/>
					<path class="st1" d="M678.58,1064.18v-61.75h-12.67v-6.97h33.01v6.97h-12.67v61.75H678.58z"/>
					<path class="st1" d="M711.89,995.46v68.72h-7.66v-68.72L711.89,995.46L711.89,995.46z"/>
					<path class="st1" d="M734.58,994.77c5.3,0,9.22,1.57,11.74,4.71s3.78,7.33,3.78,12.57v6.18h-7.27v-6.58
						c0-3.14-0.64-5.58-1.92-7.31c-1.28-1.73-3.33-2.6-6.14-2.6c-2.75,0-4.78,0.87-6.09,2.6c-1.31,1.74-1.96,4.17-1.96,7.31v36.32
						c0,3.14,0.65,5.58,1.96,7.31c1.31,1.73,3.34,2.6,6.09,2.6c2.82,0,4.86-0.87,6.14-2.6s1.92-4.17,1.92-7.31v-8.93h7.27v8.54
						c0,5.24-1.26,9.42-3.78,12.57c-2.52,3.14-6.44,4.71-11.74,4.71c-5.24,0-9.12-1.57-11.64-4.71s-3.78-7.33-3.78-12.57v-35.54
						c0-2.62,0.31-4.99,0.93-7.12c0.62-2.12,1.57-3.94,2.85-5.45c1.28-1.5,2.88-2.67,4.81-3.48
						C729.68,995.18,731.96,994.77,734.58,994.77z"/>
					<path class="st1" d="M764.84,1050.33l-2.65,13.84h-7.07l13.17-68.72h11.1l13.17,68.72h-7.66l-2.65-13.84H764.84z
						 M765.82,1043.76h15.33l-7.76-39.66L765.82,1043.76z"/>
					<path class="st1" d="M812.98,994.77c5.24,0,9.1,1.56,11.59,4.66c2.49,3.11,3.73,7.28,3.73,12.52v1.87h-7.27v-2.26
						c0-3.14-0.62-5.56-1.87-7.26c-1.24-1.7-3.24-2.55-5.99-2.55s-4.75,0.85-5.99,2.55c-1.25,1.7-1.87,4.09-1.87,7.17
						c0,2.55,0.57,4.78,1.72,6.68c1.14,1.9,2.57,3.65,4.27,5.25c1.7,1.6,3.55,3.17,5.55,4.71s3.85,3.22,5.55,5.06
						c1.7,1.83,3.13,3.91,4.27,6.23c1.15,2.32,1.72,5.09,1.72,8.29c0,5.24-1.26,9.41-3.78,12.52s-6.44,4.66-11.74,4.66
						c-5.31,0-9.2-1.55-11.69-4.66s-3.73-7.28-3.73-12.52v-3.93h7.17v4.32c0,3.14,0.65,5.56,1.96,7.26s3.34,2.55,6.09,2.55
						s4.78-0.85,6.09-2.55c1.31-1.7,1.96-4.12,1.96-7.26c0-2.55-0.57-4.76-1.72-6.63c-1.15-1.87-2.57-3.6-4.27-5.2
						s-3.54-3.17-5.5-4.71c-1.96-1.54-3.8-3.22-5.5-5.06c-1.7-1.83-3.13-3.91-4.27-6.23c-1.15-2.32-1.72-5.09-1.72-8.29
						c0-5.3,1.24-9.49,3.73-12.57C803.97,996.31,807.81,994.77,812.98,994.77z"/>
				</g>
				<path class="st1" d="M106.05,753.94c12.35,0,23.13,1.36,32.37,4.09c9.23,2.73,16.66,5.6,22.28,8.63s9.03,5.05,10.24,6.06
					l-21.68,36.5c-1.61-1.21-4.34-2.98-8.21-5.3c-3.86-2.32-8.43-4.39-13.7-6.21s-10.77-2.73-16.49-2.73
					c-7.73,0-13.98,1.39-18.74,4.16c-4.77,2.78-7.15,6.89-7.15,12.35c0,3.74,1.28,7.1,3.84,10.07c2.56,2.98,6.47,5.81,11.74,8.48
					c5.27,2.68,11.97,5.58,20.1,8.71c7.43,2.73,14.4,5.96,20.93,9.69c6.52,3.74,12.27,8.15,17.24,13.25s8.91,10.98,11.82,17.65
					c2.91,6.66,4.37,14.24,4.37,22.72c0,10.1-2.06,18.86-6.17,26.28c-4.12,7.42-9.71,13.56-16.79,18.4
					c-7.08,4.85-15.11,8.46-24.09,10.83s-18.29,3.56-27.93,3.56c-13.65,0-25.87-1.57-36.66-4.69c-10.79-3.13-19.5-6.51-26.12-10.15
					c-6.62-3.63-10.59-6.06-11.89-7.27L47.79,901c1.2,0.91,3.54,2.37,7,4.39s7.7,4.12,12.72,6.29s10.36,4.01,16.03,5.53
					c5.67,1.51,11.27,2.27,16.79,2.27c9.23,0,16.16-1.79,20.78-5.38c4.62-3.58,6.93-8.3,6.93-14.16c0-4.34-1.46-8.23-4.37-11.66
					s-7.28-6.69-13.1-9.77s-13.1-6.34-21.83-9.77c-8.73-3.53-16.89-7.82-24.46-12.87c-7.58-5.05-13.73-11.36-18.44-18.93
					c-4.72-7.57-7.08-16.96-7.08-28.17c0-11.21,3.14-20.93,9.41-29.16s14.55-14.56,24.84-19.01
					C83.29,756.16,94.31,753.94,106.05,753.94z"/>
				<path class="st1" d="M198.02,753.94h74.11c13.07,0,24.86,2.27,35.36,6.82c10.5,4.54,18.86,11.44,25.09,20.67
					c6.23,9.24,9.34,20.8,9.34,34.69c0,13.78-3.11,25.5-9.34,35.15s-14.59,17-25.09,22.05s-22.29,7.58-35.36,7.58h-27.95v75.19
					h-46.16V753.94z M245.76,846.98h14.71c6.1,0,11.58-0.9,16.43-2.7s8.73-4.68,11.63-8.63s4.35-9.18,4.35-15.68
					c0-6.6-1.45-11.83-4.35-15.68s-6.78-6.63-11.63-8.33s-10.33-2.55-16.43-2.55h-14.71V846.98z"/>
				<path class="st1" d="M364.94,753.94h126.63v39.98H409.7v41.05h81.11v38.76H409.7v41.66h81.86v39.98H364.94V753.94z"/>
				<path class="st1" d="M625.35,911.8c9.31,0,17.78-1.33,25.41-3.98c7.64-2.65,13.33-5.25,17.07-7.81l19.42,37.4
					c-4.76,3.93-12.87,7.9-24.35,11.93c-11.48,4.02-25.11,6.04-40.89,6.04c-14.77,0-28.63-2.5-41.58-7.51s-24.35-12.05-34.22-21.13
					c-9.86-9.08-17.6-19.73-23.21-31.96c-5.61-12.22-8.42-25.5-8.42-39.83s2.78-27.66,8.35-39.98
					c5.56-12.32,13.28-23.05,23.14-32.18s21.29-16.22,34.29-21.28c13-5.06,26.88-7.58,41.65-7.58c15.78,0,29.41,2.01,40.89,6.04
					c11.48,4.03,19.6,8,24.35,11.93l-19.42,37.4c-3.74-2.65-9.43-5.28-17.07-7.88s-16.11-3.9-25.41-3.9
					c-10.32,0-19.32,1.55-27.01,4.64s-14.11,7.34-19.27,12.74c-5.16,5.4-9,11.49-11.53,18.26s-3.79,13.89-3.79,21.35
					c0,7.56,1.26,14.75,3.79,21.57c2.53,6.82,6.37,12.93,11.53,18.33c5.16,5.4,11.58,9.65,19.27,12.74
					C606.03,910.26,615.04,911.8,625.35,911.8z"/>
				<path class="st1" d="M759.13,793.93h-48.84v-39.98h143.89v39.98h-48.69V955.4h-46.36V793.93z"/>
			</g>
		</g>
		<g id="Isotipo__x23_22">
			<circle id="Circulo_00000097495306750608139320000013344672746253729669_" class="st2" cx="428.25" cy="344.71" r="276.27"/>
			<path id="Rayo_00000021115585059259306790000007522837208884409473_" class="st3" d="M384.63,109.9
				c9.13-5.11,17.71-6.64,23.01-7.14c73.79-0.63,147.58-1.27,221.37-1.9c2.36,0.58,5.56,1.63,9.01,3.63
				c3.74,2.17,6.39,4.66,8.1,6.53c1.8,2.18,5.75,7.57,6.82,15.61c0.96,7.15-0.84,12.8-1.87,15.43
				c-42.66,40.53-85.31,81.06-127.97,121.59c42.19,0.47,84.38,0.94,126.58,1.41c1.9,0.04,5.6,0.37,9.46,2.59
				c1.48,0.85,4.37,2.51,6.25,5.86c3.15,5.59,1.09,11.63,0.66,12.79C540.76,401.73,415.47,517.17,290.18,632.6
				c-3.05,1.15-7.3,2.36-12.46,2.73c-7.5,0.53-13.58-0.98-17.29-2.23c-2.16-1.25-7-4.43-10.38-10.6c-3.06-5.59-3.38-10.81-3.37-13.3
				c17.43-34.74,34.81-70.35,52.05-106.85c12.88-27.26,25.34-54.26,37.39-80.97c-34.05,0.02-68.1,0.03-102.15,0.05
				c-1.65-0.43-11.17-3.07-16.65-12.82c-5.43-9.66-2.82-19.07-2.33-20.73c52.16-89.3,104.32-178.6,156.47-267.91
				C374.45,116.93,378.78,113.17,384.63,109.9z"/>
			<path id="Rayo_00000104704059848198449770000001217237645687761811_" class="st4" d="M359.7,84.97
				c9.13-5.11,17.71-6.64,23.01-7.14c73.79-0.63,147.58-1.27,221.37-1.9c2.36,0.58,5.56,1.63,9.01,3.63
				c3.74,2.17,6.39,4.66,8.1,6.53c1.8,2.18,5.75,7.57,6.82,15.61c0.96,7.15-0.84,12.8-1.87,15.43
				c-42.66,40.53-85.31,81.06-127.97,121.59c42.19,0.47,84.38,0.94,126.58,1.41c1.9,0.04,5.6,0.37,9.46,2.59
				c1.48,0.85,4.37,2.51,6.25,5.86c3.15,5.59,1.09,11.63,0.66,12.79C515.83,376.8,390.54,492.24,265.25,607.67
				c-3.05,1.15-7.3,2.36-12.46,2.73c-7.5,0.53-13.58-0.98-17.29-2.23c-2.16-1.25-7-4.43-10.38-10.6c-3.06-5.59-3.38-10.81-3.37-13.3
				c17.43-34.74,34.81-70.35,52.05-106.85c12.88-27.26,25.34-54.26,37.39-80.97c-34.05,0.02-68.1,0.03-102.15,0.05
				c-1.65-0.43-11.17-3.07-16.65-12.82c-5.43-9.66-2.82-19.07-2.33-20.73c52.16-89.3,104.32-178.6,156.47-267.91
				C349.52,92,353.85,88.24,359.7,84.97z"/>
			<path id="Rayo_00000092444137041474092050000003598513597493764762_" class="st5" d="M372.16,97.44
				c9.13-5.11,17.71-6.64,23.01-7.14c73.79-0.63,147.58-1.27,221.37-1.9c2.36,0.58,5.56,1.63,9.01,3.63
				c3.74,2.17,6.39,4.66,8.1,6.53c1.8,2.18,5.75,7.57,6.82,15.61c0.96,7.15-0.84,12.8-1.87,15.43
				c-42.66,40.53-85.31,81.06-127.97,121.59c42.19,0.47,84.38,0.94,126.58,1.41c1.9,0.04,5.6,0.37,9.46,2.59
				c1.48,0.85,4.37,2.51,6.25,5.86c3.15,5.59,1.09,11.63,0.66,12.79C528.3,389.28,403.01,504.71,277.72,620.15
				c-3.05,1.15-7.3,2.36-12.46,2.73c-7.5,0.53-13.58-0.98-17.29-2.23c-2.16-1.25-7-4.43-10.38-10.6c-3.06-5.59-3.38-10.81-3.37-13.3
				c17.43-34.74,34.81-70.35,52.05-106.85c12.88-27.26,25.34-54.26,37.39-80.97c-34.05,0.02-68.1,0.03-102.15,0.05
				c-1.65-0.43-11.17-3.07-16.65-12.82c-5.43-9.66-2.82-19.07-2.33-20.73c52.16-89.3,104.32-178.6,156.47-267.91
				C361.99,104.47,366.32,100.71,372.16,97.44z"/>
		</g>
	</g>
	<g id="Imagologo">
	</g>
</g>
<g id="Página_1.2_Isotipo">
	<g id="Para_exportar_00000174595634877913777420000006735843408120080549_">
	</g>
</g>
<g id="Página_1.1_Logotipo">
	<g id="Lineas_guía" class="st0">
	</g>
	<g id="Para_exportar">
	</g>
	<g id="LOGOTIPO">
	</g>
</g>
<g id="Labels">
</g>
<g id="Página_1">
	<g id="Lineas_guia" class="st0">
	</g>
</g>
</svg>
