<?xml version="1.0" encoding="utf-8"?>
<!-- Generator: Adobe Illustrator 26.0.0, SVG Export Plug-In . SVG Version: 6.00 Build 0)  -->
<svg version="1.1" id="Capa_1" xmlns="http://www.w3.org/2000/svg" xmlns:xlink="http://www.w3.org/1999/xlink" x="0px" y="0px"
	 viewBox="0 0 1080 1080" style="enable-background:new 0 0 1080 1080;" xml:space="preserve">
<style type="text/css">
	.st0{display:none;}
	.st1{fill:#FFFFFF;}
</style>
<g id="Brinding">
	<g id="Thank_for_buy_sticker">
	</g>
	<g id="Black_logo_Sticker">
	</g>
</g>
<g id="Global_labels">
</g>
<g id="Página_3_Tipografía">
	<g id="Lineas_guia_00000070813565277261014980000001370141877395364481_" class="st0">
	</g>
</g>
<g id="Página_2_Paleta_de_colores">
	<g id="Líneas_guía_00000020367481794738409910000018365220559042432186_" class="st0">
	</g>
</g>
<g id="Pagina_1.3_Imagologo">
	<g id="Para_exportar_00000094613602036181183140000006038299476457847219_">
	</g>
	<g id="Imagologo">
	</g>
</g>
<g id="Página_1.2_Isotipo">
	<g id="Para_exportar_00000174595634877913777420000006735843408120080549_">
		<g id="Isotipo_00000117653788191133817710000007107315605267219127_">
			
				<ellipse id="Circulo_00000057850951504328925850000005249002329382781621_" class="st1" cx="540" cy="538.26" rx="491.51" ry="480.04"/>
			<path id="Rayo_00000038373857684184759960000014424606131123913147_" d="M440.2,108.59c16.25-8.87,31.5-11.53,40.94-12.41
				c131.28-1.1,262.56-2.21,393.84-3.31c4.19,1.01,9.89,2.83,16.03,6.31c6.66,3.77,11.38,8.1,14.42,11.35
				c3.2,3.79,10.22,13.16,12.14,27.12c1.71,12.43-1.49,22.24-3.32,26.82c-75.89,70.43-151.78,140.86-227.67,211.28
				c75.06,0.82,150.13,1.64,225.19,2.45c3.38,0.06,9.96,0.64,16.83,4.5c2.63,1.48,7.78,4.37,11.13,10.18
				c5.6,9.71,1.93,20.2,1.18,22.23C717.99,615.7,495.08,816.27,272.17,1016.85c-5.43,1.99-12.98,4.11-22.17,4.74
				c-13.35,0.92-24.16-1.7-30.76-3.87c-3.85-2.17-12.46-7.69-18.47-18.41c-5.45-9.71-6.01-18.78-6-23.12
				c31.02-60.36,61.92-122.25,92.61-185.66c22.92-47.37,45.09-94.28,66.53-140.7c-60.58,0.03-121.16,0.06-181.74,0.09
				c-2.94-0.74-19.87-5.33-29.62-22.28c-9.66-16.79-5.02-33.14-4.15-36.02c92.8-155.17,185.59-310.34,278.39-465.51
				C422.1,120.81,429.8,114.27,440.2,108.59z"/>
		</g>
	</g>
</g>
<g id="Página_1.1_Logotipo">
	<g id="Lineas_guía" class="st0">
	</g>
	<g id="Para_exportar">
	</g>
	<g id="LOGOTIPO">
	</g>
</g>
<g id="Labels">
</g>
<g id="Página_1">
	<g id="Lineas_guia" class="st0">
	</g>
</g>
</svg>
